<?xml version="1.0" encoding="UTF-8"?>
<!DOCTYPE svg PUBLIC "-//W3C//DTD SVG 1.1//EN" "http://www.w3.org/Graphics/SVG/1.1/DTD/svg11.dtd">
<!-- Creator: CorelDRAW 2018 -->
<svg xmlns="http://www.w3.org/2000/svg" xml:space="preserve" width="42.3332mm" height="25.4mm" version="1.1" style="shape-rendering:geometricPrecision; text-rendering:geometricPrecision; image-rendering:optimizeQuality; fill-rule:evenodd; clip-rule:evenodd"
viewBox="0 0 4233.32 2540"
 xmlns:xlink="http://www.w3.org/1999/xlink">
 <defs>
  <style type="text/css">
   <![CDATA[
    .fil1 {fill:none}
    .fil0 {fill:#751000}
   ]]>
  </style>
 </defs>
 <g id="Layer_x0020_1">
  <metadata id="CorelCorpID_0Corel-Layer"/>
  <g id="_793027472">
   <path class="fil0" d="M76.19 108.66c85.03,-13.65 42.31,-15.78 128.05,8.26 -88,9.43 -45.36,12.75 -128.05,-8.26z"/>
  </g>
  <path class="fil1" d="M76.19 108.66c13.82,-1.6 108.22,6.04 128.05,8.26"/>
  <g id="_793026416">
   <path class="fil0" d="M344.13 144.77c99.67,16.71 54,-0.7 137.6,50.64 -95.76,-18.79 -49.75,-2.3 -137.6,-50.64z"/>
  </g>
  <path class="fil1" d="M344.13 144.77c19.83,4.09 124.45,44.97 137.6,50.64"/>
  <g id="_793024232">
   <path class="fil0" d="M591.07 252.43c80.94,47.36 48.74,15.15 96.11,97.1 -71.75,-57.61 -39.77,-25.19 -96.11,-97.1z"/>
  </g>
  <path class="fil1" d="M591.07 252.43c42.43,34.01 62.22,52.41 96.11,97.1"/>
  <g id="_793022552">
   <path class="fil0" d="M732.25 450.71c36.73,61.08 24.97,26.75 30.95,104.37 -36.46,-67.89 -27.29,-32.79 -30.95,-104.37z"/>
  </g>
  <path class="fil1" d="M732.25 450.71c7.3,32.38 20.94,59.96 30.95,104.37"/>
  <g id="_793021784">
   <path class="fil0" d="M747.88 684.73c2.53,58.25 10.01,32.32 -19.4,78.59 -4.24,-54.62 -9.71,-28.2 19.4,-78.59z"/>
  </g>
  <path class="fil1" d="M747.88 684.73c-1.53,7.41 -19.37,78.27 -19.4,78.59"/>
  <g id="_793020224">
   <path class="fil0" d="M709.97 878.83c-4.92,81.55 3.84,42.56 -25.57,117.11 -4.56,-81.8 -12.64,-42.67 25.57,-117.11z"/>
  </g>
  <path class="fil1" d="M709.97 878.83c-13.74,39.36 -21.31,79.15 -25.57,117.11"/>
  <g id="_793019504">
   <path class="fil0" d="M631.47 1156.33c1.67,49.81 3.6,41.68 -17.81,85.66 -13.05,-50.5 -13.88,-43.17 17.81,-85.66z"/>
  </g>
  <path class="fil1" d="M631.47 1156.33c-17.76,57.71 -11.67,30.94 -17.81,85.66"/>
  <g id="_793018160">
   <path class="fil0" d="M605.4 1370.04c23.15,61.41 14.76,71 0.41,133.52 -21.76,-61.48 -12.88,-71.24 -0.41,-133.52z"/>
  </g>
  <path class="fil1" d="M605.4 1370.04c8.77,33.92 -6.92,101 0.41,133.52"/>
  <g id="_793016720">
   <path class="fil0" d="M625.8 1625.24c98.7,76.61 13.63,57.6 152.83,151.13 -122.18,-29.43 -97.21,-53.78 -152.83,-151.13z"/>
  </g>
  <path class="fil1" d="M625.8 1625.24c85.42,86.48 12.95,95.52 152.83,151.13"/>
  <g id="_793013264">
   <path class="fil0" d="M901.2 1793.28c59.82,-8.49 90.89,-16.92 148.35,-33.43 -60.64,54.8 -70.96,57.27 -148.35,33.43z"/>
  </g>
  <path class="fil1" d="M901.2 1793.28c63.51,10.65 98.6,-2.59 148.35,-33.43"/>
  <g id="_793012568">
   <path class="fil0" d="M1223.66 1676.08c62.04,-37.8 73.13,-54.67 144.27,-84.47 -56.87,61.31 -60.85,74.46 -144.27,84.47z"/>
  </g>
  <path class="fil1" d="M1223.66 1676.08c57.83,-11.15 94.76,-53.77 144.27,-84.47"/>
  <g id="_793011416">
   <path class="fil0" d="M1454.09 1512.81c87.61,-114.77 34.1,-67.69 161.38,-140.29 -104.81,98.43 -50.97,51.74 -161.38,140.29z"/>
  </g>
  <path class="fil1" d="M1454.09 1512.81c41.9,-52.27 100.8,-102.74 161.38,-140.29"/>
  <g id="_793011272">
   <path class="fil0" d="M1892.35 1250.74c165.72,-55.16 80.95,-36.06 254.31,-57.31 -165.72,55.16 -80.95,36.05 -254.31,57.31z"/>
  </g>
  <path class="fil1" d="M1892.35 1250.74c84.77,-19.11 169.54,-38.21 254.31,-57.31"/>
  <g id="_793010888">
   <path class="fil0" d="M2257.4 1190.74c112.78,-22.34 136.65,-18.72 238.09,35.42 -79.76,-14.92 -157.43,-26.57 -238.09,-35.42z"/>
  </g>
  <path class="fil1" d="M2257.4 1190.74c74.16,-9.33 170.11,5.28 238.09,35.42"/>
  <g id="_793010288">
   <path class="fil0" d="M2643.33 1289.34c113.69,66.88 66.75,22.98 140.99,131.53 -97.83,-83.03 -50.81,-39.22 -140.99,-131.53z"/>
  </g>
  <path class="fil1" d="M2643.33 1289.34c42,25.62 115.3,90.1 140.99,131.53"/>
  <g id="_793789552">
   <path class="fil0" d="M2904.81 1527.32c97.65,71.51 101.79,72.19 217.09,106.96 -130.23,-1.63 -137.06,-4.57 -217.09,-106.96z"/>
  </g>
  <path class="fil1" d="M2904.81 1527.32c73.91,80.65 113.31,95.35 217.09,106.96"/>
  <g id="_793791904">
   <path class="fil0" d="M3248.36 1635.47c205.37,-24.89 104.35,-11.98 303.05,-38.6 -193.56,61.01 -92.71,46.86 -303.05,38.6z"/>
  </g>
  <path class="fil1" d="M3248.36 1635.47c140.35,7.16 181.3,-11.16 303.05,-38.6"/>
  <g id="_793791016">
   <path class="fil0" d="M3713.39 1656.86c83.48,-193.91 123.76,-270.12 304.35,-395.19 -71.46,142.08 -201.07,274.4 -304.35,395.19z"/>
  </g>
  <path class="fil1" d="M3713.39 1656.86c84.69,-174.6 302.02,-383.1 304.35,-395.19"/>
  <g id="_793791184">
   <path class="fil0" d="M3640.16 1331.91c15.91,7.3 467.01,215.83 449.22,247.64 -2.49,-1.34 -9.05,-6.43 -12.22,-8.34 -144.35,-87.01 -271.61,-130.14 -437,-239.3z"/>
  </g>
  <path class="fil1" d="M3640.16 1331.91c66.71,45.49 445.75,222.37 449.22,247.64"/>
 </g>
</svg>
