<?xml version="1.0" encoding="UTF-8"?>
<!DOCTYPE svg PUBLIC "-//W3C//DTD SVG 1.1//EN" "http://www.w3.org/Graphics/SVG/1.1/DTD/svg11.dtd">
<!-- Creator: CorelDRAW 2018 -->
<svg xmlns="http://www.w3.org/2000/svg" xml:space="preserve" width="26mm" height="24mm" version="1.1" style="shape-rendering:geometricPrecision; text-rendering:geometricPrecision; image-rendering:optimizeQuality; fill-rule:evenodd; clip-rule:evenodd"
viewBox="0 0 2600 2400"
 xmlns:xlink="http://www.w3.org/1999/xlink">
 <defs>
  <style type="text/css">
   <![CDATA[
    .fil0 {fill:#05070B}
   ]]>
  </style>
 </defs>
 <g id="Layer_x0020_1">
  <metadata id="CorelCorpID_0Corel-Layer"/>
  <path class="fil0" d="M1185.96 45.7c-4.94,17.88 -12.29,127.84 -4.56,141.6 18.8,13.05 161.36,8.4 202.21,26.18 6.38,35.88 -4.07,93.71 -15.22,124.93 -12.44,34.81 -32.82,60.18 -57.57,83.29 -49.31,46.04 -113.35,70.72 -168.33,112.48 -144.31,109.63 -135.41,255.54 -131.45,432.26 11,-4.57 10.68,-10.23 17.98,-22.07l48.32 -74.53c49.42,-66.14 100.47,-113.64 171.88,-152.64 25.17,-13.74 91.88,-41.39 129.62,-25.14 12.46,53.66 -27.17,178.26 -53.08,215.85 -34.4,49.88 -103.02,80.81 -169.52,104.87 -151.01,54.64 -268.98,73.92 -315.11,232.39 -62.03,213.08 23.97,469.57 166.2,617.25 32.23,33.46 117.53,107.33 157.95,119.6 -2.23,-44.13 -21.43,-72.19 58.8,-102.38 22.13,-8.33 128.62,-34.03 141.38,-9.17 9.42,13.99 21.38,157.35 -21.42,187.86 -23.09,16.46 -245.39,16.85 -304.53,-14.76 -21.65,-11.58 -47.98,-32.53 -61.62,-49.4 -53.37,-65.97 -57.55,-148.1 -77.85,-153.61 -61.65,-16.74 -192.79,9.08 -223.89,-99.86 -7.8,-27.35 -11.06,-76.38 -2.86,-104.23 24.77,0.15 40.7,22.72 68.11,27.37 -4.62,-69.13 -112.38,-214.89 -76.96,-417.53 31.68,-181.26 171.08,-289.46 183.99,-322.56 -51.88,6.32 -160.63,82.46 -206.53,83.48 -19.62,-64.37 -15.66,-259.4 -60.16,-292.42 -11.7,-4.49 -57.07,21.28 -85.3,24.24 -18.81,1.97 -69.21,-0.62 -85.08,11.91 -5.24,4.13 -4.09,3.14 -6.31,9.69 10.77,11.96 27.67,6.66 34.44,19.72 8.73,19.16 -7.99,26.69 -5.2,48.92 18.17,5.17 25.8,0.29 79.64,16.3 32.24,9.58 62.06,-16.94 78.41,1.05 20.71,22.8 21.38,133.79 18.89,174.5 -116.66,55.57 -301.29,128.86 -331.8,270.5 -19.06,88.46 -5.87,182.38 31.41,254.7 23.06,44.73 87.52,148.35 127.52,173.47 27.27,-27.53 37.65,-111.1 131.78,-105.59 42.53,2.48 64.08,9.83 67.54,53.42 2.65,33.3 7.78,84.48 -9.72,110.36 -52.22,5.38 -133.42,-20.36 -189.64,-24.73 -82.28,-6.41 -92.79,-14.34 -157.31,-60.03 -25.82,-18.29 -240.63,-180.77 -251.01,-182.5 11.76,18.2 225.97,229.03 246.29,248.81 28.45,27.69 97.44,97.25 133.9,114.8 120.91,58.23 136.6,206.89 177.2,320.09 24.97,69.61 39.21,112.25 113.67,135.16 79.99,24.62 355.54,36.17 460.04,37.95 82.67,1.41 166.01,0.86 248.72,0.64 79.31,-0.21 170.23,3.1 248.28,-2.1 159.73,-10.64 308.79,7.52 422.35,-74.35 62.04,-44.72 144.97,-235.1 187.8,-309.67 29.67,-51.64 48.35,-123.61 104.58,-144.66 34.68,-12.99 174.54,-36.62 197.17,-52.64 -1.12,-26.32 -57.34,-77.17 -75.11,-98.83 -25.58,-31.19 -50.83,-64.17 -75.51,-100.23 -45.66,-66.72 -85.98,-144.18 -119.45,-228.9 -32.62,-82.59 -58.45,-183.28 -67.25,-280.33 -6.5,-71.78 -4.13,-267.66 16.92,-327.01 12.1,-0.74 12.96,5.07 19.79,14.7 33.65,47.5 72.1,95.19 96.68,149.2 21.54,47.33 12.71,65.79 -26.78,89.29 -20.44,12.16 -80.77,32.26 -83.28,59.01 12.47,-0.09 24.11,-10.08 36.16,-15.86 96.68,-46.35 197.53,-54.73 128.16,-195.36 -23.05,-46.72 -49.21,-87.12 -73.7,-136.8 -7.19,-14.59 -7.92,-23.12 -25.92,-27.06 -14.4,-3.15 -33.44,1.08 -46.02,-6.81 -28.8,-18.08 8.7,-60.5 -1.68,-79.66 -11.97,4.96 -64.11,81.54 -75.18,96.95 -24.45,34.04 -48.86,67.36 -72.88,99.7l-126.68 174.57c-6.42,8.81 -11.25,20.79 -20.8,23.11 -5.85,-14.63 0.1,-41.09 -6.62,-54.22 -11.31,4.29 -13.01,32.05 -16.88,46.1 -4.95,17.99 -9.78,32.88 -14.39,51.74 -28.8,117.9 -128.26,368.08 -177.01,485.26 -14.28,34.31 -62.89,168.18 -80.63,184.68 -21.27,-4.44 -61.05,-70.39 -72.46,-90.64 -62.33,-110.74 -80.22,-299.3 -56.91,-427.95 16.34,-90.18 52.56,-172.38 97.15,-235.73 35.65,-50.65 69.73,-90.76 117.35,-131.37 9.49,-8.09 39.68,-27.71 39.42,-42.74 -30.56,1.84 -358.48,120.82 -391.84,114l-3.01 -203.38c76.46,-11.32 112.87,-8.6 190.42,5.15 52.93,9.38 148.11,40.18 172.35,43.68 -4.69,-22.76 -72.94,-87.56 -97.6,-180.23 -20.59,-77.41 -28.3,-162.33 -29.75,-249.52 -18.16,0.36 -99.73,32.32 -119.98,39.41 -27.56,9.63 -91.73,35.5 -124.1,36.13l-0.1 -353.62c-23.34,-1.97 -75.86,9.26 -101.37,10.29 -33.06,1.32 -69.86,-2.6 -102.5,0.64l-13.05 3.57zm744.7 1779.63l408.97 -87.84c13.57,-1.69 17.63,-0.28 12.65,36.46l1.09 38.56c7.52,16.97 154.14,-24.35 177.94,-33.16 11.47,-4.24 13.1,-3.32 20.31,-12.14 -10.74,-28.67 -115,-78.66 -152.36,-93.93 -48.73,-19.93 -142,-41.68 -202.29,-45.93 -86.57,-6.1 -142.8,-2.1 -218.39,21.23 -36.96,11.4 -55.88,17.02 -58.39,62.87 -1.72,31.45 -6.35,93.88 10.47,113.88zm-71.94 -133.92c-41.42,10.9 -87.42,34.09 -114.59,59.02 -25.39,23.3 -11.67,33.66 4.48,52.63 14.37,16.87 23.96,28.16 42.41,45.29 20.21,18.76 25.51,31.9 52.72,10.36 43.69,-34.6 48.51,-58.76 51.87,-123.58 2.01,-38.93 6.24,-55.09 -36.89,-43.72zm-429.34 369.24c32.4,2.48 89.5,-0.42 114.9,-13.11 62.64,-31.28 33.34,-60.35 157.29,-93.42 20.55,-5.49 83.72,-20.13 89.3,-40.61 -36.58,-29.9 -302.95,-58.68 -360.64,-58.59l-0.85 205.73z"/>
  <path class="fil0" d="M869.08 1576.72c18.61,-24.99 -3.79,-60.96 36.97,-121.33 88.36,-130.9 171.03,-129.7 170.49,-309.08 -0.71,-232.43 -15.34,-275.58 195.37,-340.37 32.8,-10.08 90.99,-27.53 111.45,-45.87 1.74,-22.95 -38.05,-123.75 -49.04,-134.77 -26.32,1.92 -237.51,107.88 -262.01,124.35 -33.87,22.77 -67.03,70.16 -81.42,111.64 -39.39,113.53 38,230.79 41.02,322.92 2.5,76.35 -14.5,95.52 -49.27,143.07 -33.27,45.52 -154.36,177.23 -120.46,241.61 4.06,7.71 3.81,5.38 6.9,7.83z"/>
  <path class="fil0" d="M2061.54 1255.66c4.3,-12.07 3.23,-33.04 2.49,-48.05 -1,-20.24 -3.12,-30.79 -21.37,-33.08 -17.46,-2.19 -83.01,5.38 -96.52,10.73 -28.04,11.1 12.62,45.35 34.79,48.7 15.68,2.37 26.7,5.32 42.15,10.85 14.43,5.17 28.09,14.83 38.46,10.85z"/>
 </g>
</svg>
